<mxfile host="app.diagrams.net" agent="Mozilla/5.0 (Windows NT 10.0; Win64; x64; rv:135.0) Gecko/20100101 Firefox/135.0" version="26.0.10">
  <diagram name="Seite-1" id="kOsxqGajKJBzKdCNPG7R">
    <mxGraphModel dx="1950" dy="866" grid="0" gridSize="20" guides="1" tooltips="1" connect="1" arrows="1" fold="1" page="0" pageScale="1" pageWidth="827" pageHeight="1169" math="0" shadow="0">
      <root>
        <mxCell id="0" />
        <mxCell id="1" parent="0" />
        <mxCell id="Ch7Z78VTcBrR7xelR91l-1" value="" style="rounded=0;whiteSpace=wrap;html=1;strokeWidth=3;" vertex="1" parent="1">
          <mxGeometry x="-320" y="140" width="160" height="40" as="geometry" />
        </mxCell>
        <mxCell id="Ch7Z78VTcBrR7xelR91l-6" value="" style="endArrow=none;html=1;rounded=0;fontSize=12;startSize=8;endSize=8;curved=0;exitX=0.5;exitY=0;exitDx=0;exitDy=0;strokeWidth=3;" edge="1" parent="1" source="Ch7Z78VTcBrR7xelR91l-32">
          <mxGeometry width="50" height="50" relative="1" as="geometry">
            <mxPoint x="-480" y="320" as="sourcePoint" />
            <mxPoint x="-278" y="-1" as="targetPoint" />
            <Array as="points">
              <mxPoint x="-480" />
            </Array>
          </mxGeometry>
        </mxCell>
        <mxCell id="Ch7Z78VTcBrR7xelR91l-9" value="" style="rounded=0;whiteSpace=wrap;html=1;strokeWidth=3;" vertex="1" parent="1">
          <mxGeometry x="-320" y="300" width="160" height="40" as="geometry" />
        </mxCell>
        <mxCell id="Ch7Z78VTcBrR7xelR91l-10" value="" style="endArrow=none;html=1;rounded=0;fontSize=12;startSize=8;endSize=8;curved=0;exitX=1;exitY=0.5;exitDx=0;exitDy=0;strokeWidth=3;" edge="1" parent="1" source="Ch7Z78VTcBrR7xelR91l-1">
          <mxGeometry width="50" height="50" relative="1" as="geometry">
            <mxPoint x="180" y="230" as="sourcePoint" />
            <mxPoint y="160" as="targetPoint" />
          </mxGeometry>
        </mxCell>
        <mxCell id="Ch7Z78VTcBrR7xelR91l-12" value="" style="endArrow=none;html=1;rounded=0;fontSize=12;startSize=8;endSize=8;curved=0;entryX=1;entryY=0.5;entryDx=0;entryDy=0;strokeWidth=3;strokeColor=default;" edge="1" parent="1" source="Ch7Z78VTcBrR7xelR91l-27" target="Ch7Z78VTcBrR7xelR91l-34">
          <mxGeometry width="50" height="50" relative="1" as="geometry">
            <mxPoint x="-160" y="320" as="sourcePoint" />
            <mxPoint x="-181.00000000000387" y="0.5" as="targetPoint" />
            <Array as="points">
              <mxPoint />
            </Array>
          </mxGeometry>
        </mxCell>
        <mxCell id="Ch7Z78VTcBrR7xelR91l-13" value="" style="endArrow=none;html=1;rounded=0;fontSize=12;startSize=8;endSize=8;curved=0;exitX=1;exitY=0.5;exitDx=0;exitDy=0;entryX=0;entryY=0.5;entryDx=0;entryDy=0;strokeWidth=3;" edge="1" parent="1" target="Ch7Z78VTcBrR7xelR91l-1">
          <mxGeometry width="50" height="50" relative="1" as="geometry">
            <mxPoint x="-480" y="159.5" as="sourcePoint" />
            <mxPoint x="-320" y="159.5" as="targetPoint" />
          </mxGeometry>
        </mxCell>
        <mxCell id="Ch7Z78VTcBrR7xelR91l-14" value="" style="ellipse;whiteSpace=wrap;html=1;aspect=fixed;strokeWidth=3;" vertex="1" parent="1">
          <mxGeometry x="-275" y="-11.5" width="24" height="24" as="geometry" />
        </mxCell>
        <mxCell id="Ch7Z78VTcBrR7xelR91l-15" value="&lt;font style=&quot;font-size: 26px;&quot;&gt;50 Ohm&lt;/font&gt;" style="text;html=1;align=center;verticalAlign=middle;whiteSpace=wrap;rounded=0;" vertex="1" parent="1">
          <mxGeometry x="-292" y="143" width="100" height="30" as="geometry" />
        </mxCell>
        <mxCell id="Ch7Z78VTcBrR7xelR91l-16" value="&lt;font style=&quot;font-size: 26px;&quot;&gt;100 Ohm&lt;/font&gt;" style="text;html=1;align=center;verticalAlign=middle;whiteSpace=wrap;rounded=0;" vertex="1" parent="1">
          <mxGeometry x="-290" y="305" width="114" height="30" as="geometry" />
        </mxCell>
        <mxCell id="Ch7Z78VTcBrR7xelR91l-17" value="&lt;font style=&quot;font-size: 23px;&quot;&gt;U&lt;sub&gt;1&lt;/sub&gt;&lt;/font&gt;" style="text;html=1;align=center;verticalAlign=middle;whiteSpace=wrap;rounded=0;" vertex="1" parent="1">
          <mxGeometry x="-270" y="93" width="60" height="30" as="geometry" />
        </mxCell>
        <mxCell id="Ch7Z78VTcBrR7xelR91l-18" value="&lt;font style=&quot;font-size: 23px;&quot;&gt;U&lt;sub&gt;2&lt;/sub&gt;&lt;/font&gt;" style="text;html=1;align=center;verticalAlign=middle;whiteSpace=wrap;rounded=0;" vertex="1" parent="1">
          <mxGeometry x="-270" y="260" width="60" height="30" as="geometry" />
        </mxCell>
        <mxCell id="Ch7Z78VTcBrR7xelR91l-19" value="&lt;font style=&quot;font-size: 23px;&quot;&gt;U&lt;sub&gt;0&lt;/sub&gt;&lt;/font&gt;" style="text;html=1;align=center;verticalAlign=middle;whiteSpace=wrap;rounded=0;" vertex="1" parent="1">
          <mxGeometry x="-267" y="-62" width="60" height="30" as="geometry" />
        </mxCell>
        <mxCell id="Ch7Z78VTcBrR7xelR91l-31" value="" style="endArrow=none;html=1;rounded=0;fontSize=12;startSize=8;endSize=8;curved=0;entryX=0.5;entryY=1;entryDx=0;entryDy=0;strokeWidth=3;strokeColor=default;" edge="1" parent="1" target="Ch7Z78VTcBrR7xelR91l-27">
          <mxGeometry width="50" height="50" relative="1" as="geometry">
            <mxPoint x="-160" y="320" as="sourcePoint" />
            <mxPoint x="-181" y="1" as="targetPoint" />
            <Array as="points">
              <mxPoint y="320" />
            </Array>
          </mxGeometry>
        </mxCell>
        <mxCell id="Ch7Z78VTcBrR7xelR91l-27" value="" style="ellipse;whiteSpace=wrap;html=1;aspect=fixed;strokeColor=default;fillColor=#000000;" vertex="1" parent="1">
          <mxGeometry x="-13" y="150" width="23" height="23" as="geometry" />
        </mxCell>
        <mxCell id="Ch7Z78VTcBrR7xelR91l-33" value="" style="endArrow=none;html=1;rounded=0;fontSize=12;startSize=8;endSize=8;curved=0;exitX=0;exitY=0.5;exitDx=0;exitDy=0;strokeWidth=3;" edge="1" parent="1" source="Ch7Z78VTcBrR7xelR91l-9" target="Ch7Z78VTcBrR7xelR91l-32">
          <mxGeometry width="50" height="50" relative="1" as="geometry">
            <mxPoint x="-320" y="320" as="sourcePoint" />
            <mxPoint x="-300" as="targetPoint" />
            <Array as="points">
              <mxPoint x="-480" y="320" />
            </Array>
          </mxGeometry>
        </mxCell>
        <mxCell id="Ch7Z78VTcBrR7xelR91l-32" value="" style="ellipse;whiteSpace=wrap;html=1;aspect=fixed;strokeColor=default;fillColor=#000000;" vertex="1" parent="1">
          <mxGeometry x="-491" y="150" width="23" height="23" as="geometry" />
        </mxCell>
        <mxCell id="Ch7Z78VTcBrR7xelR91l-34" value="" style="ellipse;whiteSpace=wrap;html=1;aspect=fixed;strokeWidth=3;" vertex="1" parent="1">
          <mxGeometry x="-234" y="-11.5" width="24" height="24" as="geometry" />
        </mxCell>
      </root>
    </mxGraphModel>
  </diagram>
</mxfile>
